<svg xmlns="http://www.w3.org/2000/svg" xmlns:xlink="http://www.w3.org/1999/xlink" viewBox="0 0 281.466 324.645">
  <defs>
    <style>
      .cls-1, .cls-56 {
        fill: none;
      }

      .cls-1, .cls-19, .cls-20, .cls-21, .cls-22, .cls-23, .cls-24, .cls-25, .cls-26, .cls-27, .cls-28, .cls-3, .cls-30, .cls-31, .cls-32, .cls-33, .cls-34, .cls-36, .cls-37, .cls-47, .cls-48, .cls-49, .cls-50, .cls-51, .cls-52, .cls-53, .cls-54, .cls-56, .cls-58, .cls-59, .cls-60, .cls-61, .cls-62, .cls-63, .cls-64 {
        stroke: #000;
      }

      .cls-1, .cls-10, .cls-11, .cls-12, .cls-13, .cls-14, .cls-15, .cls-16, .cls-17, .cls-18, .cls-19, .cls-2, .cls-20, .cls-21, .cls-22, .cls-23, .cls-24, .cls-25, .cls-26, .cls-27, .cls-28, .cls-29, .cls-3, .cls-30, .cls-31, .cls-32, .cls-33, .cls-34, .cls-35, .cls-36, .cls-37, .cls-38, .cls-39, .cls-4, .cls-40, .cls-41, .cls-42, .cls-43, .cls-44, .cls-45, .cls-46, .cls-47, .cls-48, .cls-49, .cls-5, .cls-50, .cls-51, .cls-52, .cls-53, .cls-54, .cls-56, .cls-58, .cls-59, .cls-6, .cls-60, .cls-61, .cls-62, .cls-7, .cls-8, .cls-9 {
        stroke-linecap: round;
      }

      .cls-1, .cls-10, .cls-11, .cls-12, .cls-13, .cls-14, .cls-15, .cls-16, .cls-17, .cls-18, .cls-19, .cls-2, .cls-20, .cls-21, .cls-22, .cls-23, .cls-24, .cls-25, .cls-26, .cls-27, .cls-28, .cls-29, .cls-3, .cls-30, .cls-31, .cls-32, .cls-33, .cls-34, .cls-35, .cls-36, .cls-37, .cls-38, .cls-39, .cls-4, .cls-40, .cls-41, .cls-42, .cls-43, .cls-44, .cls-45, .cls-46, .cls-47, .cls-48, .cls-49, .cls-5, .cls-50, .cls-51, .cls-52, .cls-53, .cls-54, .cls-56, .cls-58, .cls-59, .cls-6, .cls-60, .cls-61, .cls-62, .cls-63, .cls-64, .cls-7, .cls-8, .cls-9 {
        stroke-linejoin: round;
      }

      .cls-10, .cls-11, .cls-12, .cls-13, .cls-14, .cls-15, .cls-16, .cls-17, .cls-18, .cls-2, .cls-29, .cls-35, .cls-38, .cls-39, .cls-4, .cls-40, .cls-41, .cls-42, .cls-43, .cls-44, .cls-45, .cls-46, .cls-5, .cls-6, .cls-7, .cls-8, .cls-9 {
        stroke: #333;
        stroke-opacity: 0.5;
      }

      .cls-2 {
        fill: url(#Dégradé_sans_nom_50);
      }

      .cls-3 {
        fill: #fff;
      }

      .cls-19, .cls-20, .cls-21, .cls-22, .cls-23, .cls-24, .cls-25, .cls-26, .cls-27, .cls-28, .cls-3, .cls-30, .cls-31, .cls-32, .cls-33, .cls-34, .cls-36, .cls-37, .cls-47, .cls-48, .cls-49, .cls-50, .cls-51, .cls-52, .cls-53, .cls-54, .cls-56, .cls-58, .cls-59, .cls-60, .cls-61, .cls-62, .cls-63, .cls-64 {
        stroke-width: 0.806px;
      }

      .cls-4 {
        fill: url(#Dégradé_sans_nom_50-2);
      }

      .cls-5 {
        fill: url(#Dégradé_sans_nom_50-3);
      }

      .cls-6 {
        fill: url(#Dégradé_sans_nom_50-4);
      }

      .cls-7 {
        fill: url(#Dégradé_sans_nom_50-5);
      }

      .cls-8 {
        fill: url(#Dégradé_sans_nom_50-6);
      }

      .cls-9 {
        fill: url(#Dégradé_sans_nom_50-7);
      }

      .cls-10 {
        fill: url(#Dégradé_sans_nom_50-8);
      }

      .cls-11 {
        fill: url(#Dégradé_sans_nom_50-9);
      }

      .cls-12 {
        fill: url(#Dégradé_sans_nom_17);
      }

      .cls-13 {
        fill: url(#Dégradé_sans_nom_17-2);
      }

      .cls-14 {
        fill: url(#Dégradé_sans_nom_17-3);
      }

      .cls-15 {
        fill: url(#Dégradé_sans_nom_17-4);
      }

      .cls-16 {
        fill: url(#Dégradé_sans_nom_17-5);
      }

      .cls-17 {
        fill: url(#Dégradé_sans_nom_17-6);
      }

      .cls-18 {
        fill: url(#Dégradé_sans_nom_17-7);
      }

      .cls-19 {
        fill: url(#Dégradé_sans_nom_16);
      }

      .cls-20 {
        fill: url(#Dégradé_sans_nom_16-2);
      }

      .cls-21 {
        fill: url(#Dégradé_sans_nom_16-3);
      }

      .cls-22 {
        fill: url(#Dégradé_sans_nom_16-4);
      }

      .cls-23 {
        fill: url(#Dégradé_sans_nom_16-5);
      }

      .cls-24 {
        fill: url(#Dégradé_sans_nom_16-6);
      }

      .cls-25 {
        fill: url(#Dégradé_sans_nom_16-7);
      }

      .cls-26 {
        fill: url(#Dégradé_sans_nom_16-8);
      }

      .cls-27 {
        fill: url(#Dégradé_sans_nom_16-9);
      }

      .cls-28 {
        fill: url(#Dégradé_sans_nom_16-10);
      }

      .cls-29 {
        fill: url(#Dégradé_sans_nom_17-8);
      }

      .cls-30 {
        fill: url(#Dégradé_sans_nom_16-11);
      }

      .cls-31 {
        fill: url(#Dégradé_sans_nom_16-12);
      }

      .cls-32 {
        fill: url(#Dégradé_sans_nom_16-13);
      }

      .cls-33 {
        fill: url(#Dégradé_sans_nom_16-14);
      }

      .cls-34 {
        fill: url(#Dégradé_sans_nom_16-15);
      }

      .cls-35 {
        fill: url(#Dégradé_sans_nom_18);
      }

      .cls-36 {
        fill: url(#Dégradé_sans_nom_16-16);
      }

      .cls-37 {
        fill: url(#Dégradé_sans_nom_16-17);
      }

      .cls-38 {
        fill: url(#Dégradé_sans_nom_50-10);
      }

      .cls-39 {
        fill: url(#Dégradé_sans_nom_50-11);
      }

      .cls-40 {
        fill: url(#Dégradé_sans_nom_50-12);
      }

      .cls-41 {
        fill: url(#Dégradé_sans_nom_50-13);
      }

      .cls-42 {
        fill: url(#Dégradé_sans_nom_50-14);
      }

      .cls-43 {
        fill: url(#Dégradé_sans_nom_50-15);
      }

      .cls-44 {
        fill: url(#Dégradé_sans_nom_50-16);
      }

      .cls-45 {
        fill: url(#Dégradé_sans_nom_50-17);
      }

      .cls-46 {
        fill: url(#Dégradé_sans_nom_50-18);
      }

      .cls-47 {
        fill: url(#Dégradé_sans_nom_20);
      }

      .cls-48 {
        fill: url(#Dégradé_sans_nom_20-2);
      }

      .cls-49 {
        fill: url(#Dégradé_sans_nom_20-3);
      }

      .cls-50 {
        fill: url(#Dégradé_sans_nom_20-4);
      }

      .cls-51 {
        fill: url(#Dégradé_sans_nom_20-5);
      }

      .cls-52 {
        fill: url(#Dégradé_sans_nom_20-6);
      }

      .cls-53 {
        fill: url(#Dégradé_sans_nom_20-7);
      }

      .cls-54 {
        fill: url(#Dégradé_sans_nom_20-8);
      }

      .cls-55 {
        fill: url(#Dégradé_sans_nom_20-9);
      }

      .cls-57 {
        fill: url(#Dégradé_sans_nom_20-10);
      }

      .cls-58 {
        fill: url(#Dégradé_sans_nom_20-11);
      }

      .cls-59 {
        fill: url(#Dégradé_sans_nom_20-12);
      }

      .cls-60 {
        fill: url(#Dégradé_sans_nom_20-13);
      }

      .cls-61 {
        fill: url(#Dégradé_sans_nom_20-14);
      }

      .cls-62 {
        fill: url(#Dégradé_sans_nom_20-15);
      }

      .cls-63, .cls-64 {
        stroke-linecap: square;
      }

      .cls-63 {
        fill: url(#Dégradé_sans_nom_20-16);
      }

      .cls-64 {
        fill: url(#Dégradé_sans_nom_20-17);
      }
    </style>
    <linearGradient id="Dégradé_sans_nom_50" data-name="Dégradé sans nom 50" x1="138.648" y1="-31.416" x2="141.315" y2="181.918" gradientUnits="userSpaceOnUse">
      <stop offset="0"/>
      <stop offset="0.166" stop-color="#070707"/>
      <stop offset="0.614" stop-color="#151515"/>
      <stop offset="1" stop-color="#1a1a1a"/>
    </linearGradient>
    <linearGradient id="Dégradé_sans_nom_50-2" x1="185.722" y1="-32.004" x2="188.389" y2="181.329" xlink:href="#Dégradé_sans_nom_50"/>
    <linearGradient id="Dégradé_sans_nom_50-3" x1="232.796" y1="-32.592" x2="235.463" y2="180.741" xlink:href="#Dégradé_sans_nom_50"/>
    <linearGradient id="Dégradé_sans_nom_50-4" x1="92.248" y1="-30.836" x2="94.915" y2="182.498" xlink:href="#Dégradé_sans_nom_50"/>
    <linearGradient id="Dégradé_sans_nom_50-5" x1="139.322" y1="-31.424" x2="141.989" y2="181.909" xlink:href="#Dégradé_sans_nom_50"/>
    <linearGradient id="Dégradé_sans_nom_50-6" x1="186.396" y1="-32.012" x2="189.063" y2="181.321" xlink:href="#Dégradé_sans_nom_50"/>
    <linearGradient id="Dégradé_sans_nom_50-7" x1="45.848" y1="-30.256" x2="48.515" y2="183.078" xlink:href="#Dégradé_sans_nom_50"/>
    <linearGradient id="Dégradé_sans_nom_50-8" x1="92.923" y1="-30.844" x2="95.589" y2="182.489" xlink:href="#Dégradé_sans_nom_50"/>
    <linearGradient id="Dégradé_sans_nom_50-9" x1="139.997" y1="-31.432" x2="142.663" y2="181.901" xlink:href="#Dégradé_sans_nom_50"/>
    <linearGradient id="Dégradé_sans_nom_17" data-name="Dégradé sans nom 17" x1="294.836" y1="264.954" x2="67.28" y2="49.843" gradientUnits="userSpaceOnUse">
      <stop offset="0"/>
      <stop offset="0.011" stop-color="#010101"/>
      <stop offset="0.244" stop-color="#0f0f0f"/>
      <stop offset="0.528" stop-color="#171717"/>
      <stop offset="1" stop-color="#1a1a1a"/>
    </linearGradient>
    <linearGradient id="Dégradé_sans_nom_17-2" x1="259.313" y1="302.532" x2="31.757" y2="87.421" xlink:href="#Dégradé_sans_nom_17"/>
    <linearGradient id="Dégradé_sans_nom_17-3" x1="223.79" y1="340.11" x2="-3.766" y2="124.999" xlink:href="#Dégradé_sans_nom_17"/>
    <linearGradient id="Dégradé_sans_nom_17-4" x1="321.764" y1="236.468" x2="94.208" y2="21.357" xlink:href="#Dégradé_sans_nom_17"/>
    <linearGradient id="Dégradé_sans_nom_17-5" x1="286.241" y1="274.046" x2="58.685" y2="58.935" xlink:href="#Dégradé_sans_nom_17"/>
    <linearGradient id="Dégradé_sans_nom_17-6" x1="250.718" y1="311.624" x2="23.162" y2="96.513" xlink:href="#Dégradé_sans_nom_17"/>
    <linearGradient id="Dégradé_sans_nom_17-7" x1="348.691" y1="207.983" x2="121.136" y2="-7.128" xlink:href="#Dégradé_sans_nom_17"/>
    <linearGradient id="Dégradé_sans_nom_16" data-name="Dégradé sans nom 16" x1="104.347" y1="390.738" x2="477.236" y2="8.071" gradientUnits="userSpaceOnUse">
      <stop offset="0" stop-color="#062580"/>
      <stop offset="0.247" stop-color="#07288a"/>
      <stop offset="0.667" stop-color="#0830a5"/>
      <stop offset="1" stop-color="#0a37bf"/>
    </linearGradient>
    <linearGradient id="Dégradé_sans_nom_16-2" x1="93.52" y1="380.187" x2="466.409" y2="-2.479" xlink:href="#Dégradé_sans_nom_16"/>
    <linearGradient id="Dégradé_sans_nom_16-3" x1="97.144" y1="383.719" x2="470.033" y2="1.052" xlink:href="#Dégradé_sans_nom_16"/>
    <linearGradient id="Dégradé_sans_nom_16-4" x1="87.23" y1="374.057" x2="460.119" y2="-8.609" xlink:href="#Dégradé_sans_nom_16"/>
    <linearGradient id="Dégradé_sans_nom_16-5" x1="81.493" y1="368.467" x2="454.382" y2="-14.199" xlink:href="#Dégradé_sans_nom_16"/>
    <linearGradient id="Dégradé_sans_nom_16-6" x1="78.195" y1="365.253" x2="451.084" y2="-17.413" xlink:href="#Dégradé_sans_nom_16"/>
    <linearGradient id="Dégradé_sans_nom_16-7" x1="74.058" y1="361.222" x2="446.947" y2="-21.445" xlink:href="#Dégradé_sans_nom_16"/>
    <linearGradient id="Dégradé_sans_nom_16-8" x1="77.386" y1="364.465" x2="450.275" y2="-18.201" xlink:href="#Dégradé_sans_nom_16"/>
    <linearGradient id="Dégradé_sans_nom_16-9" x1="48.563" y1="336.379" x2="421.452" y2="-46.288" xlink:href="#Dégradé_sans_nom_16"/>
    <linearGradient id="Dégradé_sans_nom_16-10" x1="51.862" y1="339.593" x2="424.751" y2="-43.073" xlink:href="#Dégradé_sans_nom_16"/>
    <linearGradient id="Dégradé_sans_nom_17-8" x1="313.168" y1="245.561" x2="85.613" y2="30.45" xlink:href="#Dégradé_sans_nom_17"/>
    <linearGradient id="Dégradé_sans_nom_16-11" x1="65.028" y1="352.423" x2="437.917" y2="-30.244" xlink:href="#Dégradé_sans_nom_16"/>
    <linearGradient id="Dégradé_sans_nom_16-12" x1="55.998" y1="343.624" x2="428.887" y2="-39.043" xlink:href="#Dégradé_sans_nom_16"/>
    <linearGradient id="Dégradé_sans_nom_16-13" x1="52.67" y1="340.38" x2="425.559" y2="-42.286" xlink:href="#Dégradé_sans_nom_16"/>
    <linearGradient id="Dégradé_sans_nom_16-14" x1="32.912" y1="321.127" x2="405.801" y2="-61.54" xlink:href="#Dégradé_sans_nom_16"/>
    <linearGradient id="Dégradé_sans_nom_16-15" x1="42.826" y1="330.788" x2="415.715" y2="-51.878" xlink:href="#Dégradé_sans_nom_16"/>
    <linearGradient id="Dégradé_sans_nom_18" data-name="Dégradé sans nom 18" x1="277.645" y1="283.139" x2="50.09" y2="68.028" gradientUnits="userSpaceOnUse">
      <stop offset="0"/>
      <stop offset="0.008" stop-color="#010101"/>
      <stop offset="0.176" stop-color="#0f0f0f"/>
      <stop offset="0.381" stop-color="#171717"/>
      <stop offset="0.721" stop-color="#1a1a1a"/>
    </linearGradient>
    <linearGradient id="Dégradé_sans_nom_16-16" x1="25.701" y1="314.101" x2="398.59" y2="-68.566" xlink:href="#Dégradé_sans_nom_16"/>
    <linearGradient id="Dégradé_sans_nom_16-17" x1="36.519" y1="324.643" x2="409.408" y2="-58.024" xlink:href="#Dégradé_sans_nom_16"/>
    <linearGradient id="Dégradé_sans_nom_50-10" x1="-8.595" y1="258.58" x2="125.034" y2="139.914" xlink:href="#Dégradé_sans_nom_50"/>
    <linearGradient id="Dégradé_sans_nom_50-11" x1="25.405" y1="296.868" x2="159.035" y2="178.201" xlink:href="#Dégradé_sans_nom_50"/>
    <linearGradient id="Dégradé_sans_nom_50-12" x1="59.405" y1="335.155" x2="193.035" y2="216.489" xlink:href="#Dégradé_sans_nom_50"/>
    <linearGradient id="Dégradé_sans_nom_50-13" x1="-35.416" y1="228.457" x2="98.214" y2="109.79" xlink:href="#Dégradé_sans_nom_50"/>
    <linearGradient id="Dégradé_sans_nom_50-14" x1="-1.376" y1="266.71" x2="132.253" y2="148.043" xlink:href="#Dégradé_sans_nom_50"/>
    <linearGradient id="Dégradé_sans_nom_50-15" x1="32.624" y1="304.997" x2="166.254" y2="186.33" xlink:href="#Dégradé_sans_nom_50"/>
    <linearGradient id="Dégradé_sans_nom_50-16" x1="-62.158" y1="198.264" x2="71.472" y2="79.597" xlink:href="#Dégradé_sans_nom_50"/>
    <linearGradient id="Dégradé_sans_nom_50-17" x1="-28.197" y1="236.586" x2="105.433" y2="117.919" xlink:href="#Dégradé_sans_nom_50"/>
    <linearGradient id="Dégradé_sans_nom_50-18" x1="5.843" y1="274.839" x2="139.472" y2="156.172" xlink:href="#Dégradé_sans_nom_50"/>
    <linearGradient id="Dégradé_sans_nom_20" data-name="Dégradé sans nom 20" x1="-42.325" y1="255.55" x2="196.564" y2="162.439" gradientUnits="userSpaceOnUse">
      <stop offset="0" stop-color="maroon"/>
      <stop offset="0" stop-color="#820000"/>
      <stop offset="0.264" stop-color="#860000"/>
      <stop offset="0.515" stop-color="#910000"/>
      <stop offset="0.76" stop-color="#a40000"/>
      <stop offset="1" stop-color="#bf0000"/>
    </linearGradient>
    <linearGradient id="Dégradé_sans_nom_20-2" x1="-42.917" y1="254.031" x2="195.972" y2="160.919" xlink:href="#Dégradé_sans_nom_20"/>
    <linearGradient id="Dégradé_sans_nom_20-3" x1="-23.655" y1="303.449" x2="215.233" y2="210.338" xlink:href="#Dégradé_sans_nom_20"/>
    <linearGradient id="Dégradé_sans_nom_20-4" x1="-29.961" y1="287.271" x2="208.928" y2="194.16" xlink:href="#Dégradé_sans_nom_20"/>
    <linearGradient id="Dégradé_sans_nom_20-5" x1="-8.957" y1="341.16" x2="229.932" y2="248.049" xlink:href="#Dégradé_sans_nom_20"/>
    <linearGradient id="Dégradé_sans_nom_20-6" x1="-20.787" y1="310.809" x2="218.102" y2="217.698" xlink:href="#Dégradé_sans_nom_20"/>
    <linearGradient id="Dégradé_sans_nom_20-7" x1="-58.242" y1="214.713" x2="180.647" y2="121.602" xlink:href="#Dégradé_sans_nom_20"/>
    <linearGradient id="Dégradé_sans_nom_20-8" x1="-63.363" y1="201.573" x2="175.525" y2="108.462" xlink:href="#Dégradé_sans_nom_20"/>
    <linearGradient id="Dégradé_sans_nom_20-9" x1="-77.778" y1="153.251" x2="152.186" y2="63.619" xlink:href="#Dégradé_sans_nom_20"/>
    <linearGradient id="Dégradé_sans_nom_20-10" x1="-69.766" y1="185.147" x2="169.123" y2="92.035" xlink:href="#Dégradé_sans_nom_20"/>
    <linearGradient id="Dégradé_sans_nom_20-11" x1="-45.286" y1="247.953" x2="193.603" y2="154.842" xlink:href="#Dégradé_sans_nom_20"/>
    <linearGradient id="Dégradé_sans_nom_20-12" x1="-32.33" y1="281.193" x2="206.559" y2="188.082" xlink:href="#Dégradé_sans_nom_20"/>
    <linearGradient id="Dégradé_sans_nom_20-13" x1="-27.209" y1="294.333" x2="211.68" y2="201.222" xlink:href="#Dégradé_sans_nom_20"/>
    <linearGradient id="Dégradé_sans_nom_20-14" x1="-66.917" y1="192.457" x2="171.972" y2="99.346" xlink:href="#Dégradé_sans_nom_20"/>
    <linearGradient id="Dégradé_sans_nom_20-15" x1="-60.611" y1="208.635" x2="178.278" y2="115.524" xlink:href="#Dégradé_sans_nom_20"/>
    <linearGradient id="Dégradé_sans_nom_20-16" x1="-48.247" y1="240.356" x2="190.642" y2="147.245" xlink:href="#Dégradé_sans_nom_20"/>
    <linearGradient id="Dégradé_sans_nom_20-17" x1="-47.655" y1="241.875" x2="191.234" y2="148.764" xlink:href="#Dégradé_sans_nom_20"/>
  </defs>
  <title>icoCopy</title>
  <g id="Calque_2" data-name="Calque 2">
    <g id="Calque_9" data-name="Calque 9">
      <g>
        <polygon id="Up_square" data-name="Up square" class="cls-1" points="140.733 162.322 0.5 81.411 140.733 0.5 280.966 81.411 140.733 162.322"/>
        <polygon id="Front" class="cls-2" points="93.989 135.352 140.733 108.382 187.477 135.352 140.733 162.322 93.989 135.352"/>
        <g id="Front_Sticker" data-name="Front Sticker">
          <path class="cls-3" d="M126.71,121.867l-20.774,11.986c-1.429.824-1.429,2.174,0,3l32.2,18.578a5.766,5.766,0,0,0,5.2,0l32.2-18.578c1.429-.824,1.429-2.174,0-3l-16.1-9.289"/>
          <path class="cls-3" d="M159.431,124.564l-11.769-6.79a15.38,15.38,0,0,0-13.858,0l-7.094,4.093"/>
        </g>
        <polygon id="FR" class="cls-4" points="140.733 108.382 187.477 81.411 234.221 108.382 187.477 135.352 140.733 108.382"/>
        <g id="FR_Sticker" data-name="FR Sticker">
          <path class="cls-3" d="M206.175,97.593l16.1,9.289c1.429.825,1.429,2.174,0,3l-32.2,18.578a5.772,5.772,0,0,1-5.2,0l-16.1-9.289"/>
          <path class="cls-3" d="M168.779,119.17l-11.768-6.79c-3.811-2.2-3.811-5.8,0-8L180.548,90.8a15.38,15.38,0,0,1,13.858,0l11.769,6.79"/>
        </g>
        <polygon id="Right" class="cls-5" points="187.477 81.411 234.221 54.441 280.966 81.411 234.221 108.382 187.477 81.411"/>
        <g id="Right_Sticker" data-name="Right Sticker">
          <path class="cls-3" d="M220.2,67.926l11.425-6.592a5.772,5.772,0,0,1,5.2,0l32.2,18.578c1.43.825,1.43,2.174,0,3l-32.2,18.578a5.766,5.766,0,0,1-5.2,0L220.2,94.9"/>
          <path class="cls-3" d="M220.2,94.9l-16.443-9.487c-3.811-2.2-3.811-5.8,0-8L220.2,67.926"/>
        </g>
        <polygon id="FL" class="cls-6" points="47.244 108.382 93.989 81.411 140.733 108.382 93.989 135.352 47.244 108.382"/>
        <g id="FL_Sticker" data-name="FL Sticker">
          <path class="cls-3" d="M79.965,94.9,87.059,90.8a15.382,15.382,0,0,1,13.859,0l23.537,13.581c3.811,2.2,3.811,5.8,0,8l-7.094,4.093"/>
          <path class="cls-3" d="M117.361,116.473,96.587,128.459a5.772,5.772,0,0,1-5.2,0l-32.2-18.578c-1.43-.825-1.43-2.174,0-3L79.965,94.9"/>
        </g>
        <polygon id="Center" class="cls-7" points="93.989 81.411 140.733 54.441 187.477 81.411 140.733 108.382 93.989 81.411"/>
        <path id="Center_Sticker" data-name="Center Sticker" class="cls-3" d="M147.662,98.989a15.38,15.38,0,0,1-13.858,0l-23.537-13.58c-3.811-2.2-3.811-5.8,0-8L133.8,63.833a15.38,15.38,0,0,1,13.858,0L171.2,77.413c3.811,2.2,3.811,5.8,0,8Z"/>
        <polygon id="CR" class="cls-8" points="140.733 54.441 187.477 27.47 234.221 54.441 187.477 81.411 140.733 54.441"/>
        <g id="CR_Sticker" data-name="CR Sticker">
          <path class="cls-3" d="M201.5,67.926l-7.094,4.093a15.38,15.38,0,0,1-13.858,0l-23.537-13.58c-3.811-2.2-3.811-5.8,0-8l7.094-4.093"/>
          <path class="cls-3" d="M164.105,46.35l20.774-11.986a5.766,5.766,0,0,1,5.2,0l32.2,18.578c1.429.824,1.429,2.173,0,3L201.5,67.926"/>
        </g>
        <polygon id="Left" class="cls-9" points="0.5 81.411 47.244 54.441 93.989 81.411 47.244 108.382 0.5 81.411"/>
        <g id="Left_Sticker" data-name="Left Sticker">
          <path class="cls-3" d="M61.268,94.9l-11.425,6.592a5.766,5.766,0,0,1-5.2,0L12.447,82.91c-1.429-.824-1.429-2.173,0-3l32.2-18.578a5.772,5.772,0,0,1,5.2,0l11.425,6.592"/>
          <path class="cls-3" d="M61.268,67.926,77.71,77.413c3.812,2.2,3.812,5.8,0,8L61.268,94.9"/>
        </g>
        <polygon id="UL" class="cls-10" points="47.244 54.441 93.989 27.47 140.733 54.441 93.989 81.411 47.244 54.441"/>
        <g id="UL_Sticker" data-name="UL Sticker">
          <path class="cls-3" d="M112.686,43.653l11.769,6.79c3.811,2.2,3.811,5.8,0,8l-23.537,13.58a15.382,15.382,0,0,1-13.859,0l-11.768-6.79"/>
          <path class="cls-3" d="M75.291,65.229l-16.1-9.289c-1.43-.825-1.43-2.174,0-3l32.2-18.578a5.766,5.766,0,0,1,5.2,0l16.1,9.289"/>
        </g>
        <polygon id="UP" class="cls-11" points="93.989 27.47 140.733 0.5 187.477 27.47 140.733 54.441 93.989 27.47"/>
        <g id="UP_Sticker" data-name="UP Sticker">
          <path class="cls-3" d="M154.756,40.956,175.53,28.97c1.429-.825,1.429-2.174,0-3l-32.2-18.578a5.772,5.772,0,0,0-5.2,0l-32.2,18.578c-1.429.825-1.429,2.174,0,3l16.1,9.289"/>
          <path class="cls-3" d="M122.035,38.259l11.769,6.79a15.38,15.38,0,0,0,13.858,0l7.094-4.093"/>
        </g>
        <polygon id="Right_square" data-name="Right square" class="cls-1" points="140.733 162.322 140.733 324.145 280.966 243.234 280.966 81.411 140.733 162.322"/>
        <polygon id="DR" class="cls-12" points="234.221 270.204 234.221 216.263 280.966 189.293 280.966 243.234 234.221 270.204"/>
        <polygon id="DC" class="cls-13" points="234.221 270.204 187.477 297.174 187.477 243.234 234.221 216.263 234.221 270.204"/>
        <polygon id="DL" class="cls-14" points="187.477 297.174 140.733 324.145 140.733 270.204 187.477 243.234 187.477 297.174"/>
        <polygon id="CR-2" data-name="CR" class="cls-15" points="234.221 216.263 234.221 162.322 280.966 135.352 280.966 189.293 234.221 216.263"/>
        <polygon id="Center-2" data-name="Center" class="cls-16" points="234.221 216.263 187.477 243.234 187.477 189.293 234.221 162.322 234.221 216.263"/>
        <polygon id="CL" class="cls-17" points="187.477 243.234 140.733 270.204 140.733 216.263 187.477 189.293 187.477 243.234"/>
        <polygon id="UR" class="cls-18" points="234.221 162.322 234.221 108.382 280.966 81.411 280.966 135.352 234.221 162.322"/>
        <g>
          <g id="DR_Sticker" data-name="DR Sticker">
            <path class="cls-19" d="M238.9,240.508v18.576c0,1.65,1.17,2.326,2.6,1.5l32.2-18.553a5.753,5.753,0,0,0,2.6-4.5V200.384c0-1.65-1.169-2.325-2.6-1.5l-16.1,9.289"/>
            <path class="cls-20" d="M257.594,208.172l-11.769,6.79a15.365,15.365,0,0,0-6.929,12v13.548"/>
          </g>
          <g id="DC_Sticker" data-name="DC Sticker">
            <path id="Center-3" data-name="Center" class="cls-21" d="M229.547,245.931v18.576a5.76,5.76,0,0,1-2.6,4.5l-32.2,18.578c-1.429.825-2.6.149-2.6-1.5V267.507"/>
            <path id="Center-4" data-name="Center" class="cls-22" d="M192.152,267.507V253.931a15.365,15.365,0,0,1,6.929-12l23.537-13.581c3.811-2.2,6.929-.4,6.929,4v13.577"/>
          </g>
          <g id="DL_Sticker" data-name="DL Sticker">
            <path id="DR_Sticker-2" data-name="DR Sticker" class="cls-23" d="M164.121,262.1l-16.115,9.3a5.761,5.761,0,0,0-2.6,4.5v37.153c0,1.65,1.17,2.325,2.6,1.5l32.2-18.577a5.765,5.765,0,0,0,2.6-4.5v-18.6"/>
            <path id="DR_Sticker-3" data-name="DR Sticker" class="cls-24" d="M182.8,272.873V259.325c0-4.4-3.118-6.2-6.93-4L164.121,262.1"/>
          </g>
          <g id="CR_Sticker-2" data-name="CR Sticker">
            <path class="cls-25" d="M257.594,154.231l-11.769,6.79a15.365,15.365,0,0,0-6.929,12v27.153c0,4.4,3.118,6.2,6.929,4l11.769-6.79"/>
            <path class="cls-26" d="M257.594,197.384l16.1-9.289a5.762,5.762,0,0,0,2.6-4.5V146.443c0-1.65-1.169-2.325-2.6-1.5l-16.1,9.289"/>
          </g>
          <g id="UR_Sticker" data-name="UR Sticker">
            <path id="DR_Sticker-4" data-name="DR Sticker" class="cls-27" d="M257.585,143.448l16.108-9.294a5.76,5.76,0,0,0,2.6-4.5V92.5c0-1.65-1.169-2.325-2.6-1.5l-32.2,18.577a5.764,5.764,0,0,0-2.6,4.5v18.6"/>
            <path id="DR_Sticker-5" data-name="DR Sticker" class="cls-28" d="M238.9,132.683v13.548c0,4.4,3.118,6.2,6.929,4l11.76-6.785"/>
          </g>
        </g>
        <polygon id="UC" class="cls-29" points="234.221 162.322 187.477 189.293 187.477 135.352 234.221 108.382 234.221 162.322"/>
        <g>
          <path id="Center_Sticker-2" data-name="Center Sticker" class="cls-30" d="M229.547,205.566a15.365,15.365,0,0,1-6.929,12l-23.537,13.58c-3.811,2.2-6.929.4-6.929-4V199.99a15.365,15.365,0,0,1,6.929-12l23.537-13.58c3.811-2.2,6.929-.4,6.929,4Z"/>
          <g id="CL_Sticker" data-name="CL Sticker">
            <path class="cls-31" d="M164.105,251.325l11.768-6.79a15.363,15.363,0,0,0,6.93-12V205.384c0-4.4-3.118-6.2-6.93-4l-11.768,6.79"/>
            <path class="cls-32" d="M164.105,208.172l-16.1,9.289a5.763,5.763,0,0,0-2.6,4.5v37.153c0,1.65,1.17,2.325,2.6,1.5l16.1-9.289"/>
          </g>
          <g id="UC_sticker" data-name="UC sticker">
            <path id="Center-5" data-name="Center" class="cls-33" d="M192.152,159.625V141.049a5.76,5.76,0,0,1,2.6-4.5l32.2-18.578c1.429-.825,2.6-.149,2.6,1.5v18.576"/>
            <path id="Center-6" data-name="Center" class="cls-34" d="M229.547,138.049v13.576a15.365,15.365,0,0,1-6.929,12L199.081,177.2c-3.811,2.2-6.929.4-6.929-4V159.625"/>
          </g>
        </g>
        <polygon id="UL-2" data-name="UL" class="cls-35" points="187.477 189.293 140.733 216.263 140.733 162.322 187.477 135.352 187.477 189.293"/>
        <g id="UL_Sticker-2" data-name="UL Sticker">
          <path class="cls-36" d="M182.8,164.991V146.443c0-1.65-1.17-2.325-2.6-1.5l-32.2,18.578a5.763,5.763,0,0,0-2.6,4.5v37.153c0,1.65,1.169,2.324,2.6,1.5l16.1-9.315"/>
          <path class="cls-37" d="M164.105,197.355l11.764-6.769A15.344,15.344,0,0,0,182.8,178.6v-13.6"/>
        </g>
        <polygon id="Left_Square" data-name="Left Square" class="cls-1" points="140.733 162.322 140.733 324.145 0.5 243.234 0.5 81.411 140.733 162.322"/>
        <g id="Back_TIles" data-name="Back TIles">
          <polygon id="DL-2" data-name="DL" class="cls-38" points="47.244 270.204 47.244 216.263 0.5 189.293 0.5 243.234 47.244 270.204"/>
          <polygon id="DC-2" data-name="DC" class="cls-39" points="47.244 270.204 93.989 297.174 93.989 243.234 47.244 216.263 47.244 270.204"/>
          <polygon id="DR-2" data-name="DR" class="cls-40" points="93.989 297.174 140.733 324.145 140.733 270.204 93.989 243.234 93.989 297.174"/>
          <polygon id="CL-2" data-name="CL" class="cls-41" points="47.244 216.263 47.244 162.322 0.5 135.352 0.5 189.293 47.244 216.263"/>
          <polygon id="Center-7" data-name="Center" class="cls-42" points="47.244 216.263 93.989 243.234 93.989 189.293 47.244 162.322 47.244 216.263"/>
          <polygon id="CR-3" data-name="CR" class="cls-43" points="93.989 243.234 140.733 270.204 140.733 216.263 93.989 189.293 93.989 243.234"/>
          <polygon id="UL-3" data-name="UL" class="cls-44" points="47.244 162.322 47.244 108.382 0.5 81.411 0.5 135.352 47.244 162.322"/>
          <polygon id="UC-2" data-name="UC" class="cls-45" points="47.244 162.322 93.989 189.293 93.989 135.352 47.244 108.382 47.244 162.322"/>
          <polygon id="UR-2" data-name="UR" class="cls-46" points="93.989 189.293 140.733 216.263 140.733 162.322 93.989 135.352 93.989 189.293"/>
        </g>
        <g id="DL_Sticker-2" data-name="DL Sticker">
          <path class="cls-47" d="M42.57,240.537v18.576c0,1.65-1.169,2.325-2.6,1.5l-32.2-18.578a5.763,5.763,0,0,1-2.6-4.5V200.384c0-1.65,1.17-2.325,2.6-1.5l16.1,9.289"/>
          <path class="cls-48" d="M23.872,208.172l11.769,6.79a15.365,15.365,0,0,1,6.929,12v13.577"/>
        </g>
        <g id="DC_Sticker-2" data-name="DC Sticker">
          <path id="Center-8" data-name="Center" class="cls-49" d="M51.919,245.931v18.576a5.76,5.76,0,0,0,2.6,4.5l32.2,18.578c1.429.825,2.6.149,2.6-1.5V267.507"/>
          <path id="Center-9" data-name="Center" class="cls-50" d="M89.314,267.507V253.931a15.365,15.365,0,0,0-6.929-12L58.848,228.352c-3.811-2.2-6.929-.4-6.929,4v13.577"/>
        </g>
        <g id="DR_Sticker-6" data-name="DR Sticker">
          <path id="DR_Sticker-7" data-name="DR Sticker" class="cls-51" d="M117.361,262.113l16.1,9.289a5.76,5.76,0,0,1,2.6,4.5v37.153c0,1.65-1.169,2.325-2.6,1.5l-32.2-18.577a5.762,5.762,0,0,1-2.6-4.5V272.9"/>
          <path id="DR_Sticker-8" data-name="DR Sticker" class="cls-52" d="M98.663,272.9V259.325c0-4.4,3.118-6.2,6.929-4l11.769,6.79"/>
        </g>
        <g id="CL_Sticker-2" data-name="CL Sticker">
          <path class="cls-53" d="M23.872,154.231l11.769,6.79a15.365,15.365,0,0,1,6.929,12v27.153c0,4.4-3.118,6.2-6.929,4l-11.769-6.79"/>
          <path class="cls-54" d="M23.872,197.384,7.773,188.1a5.763,5.763,0,0,1-2.6-4.5V146.443c0-1.65,1.17-2.325,2.6-1.5l16.1,9.289"/>
        </g>
        <g id="UL_Sticker-3" data-name="UL Sticker">
          <g id="DR_Sticker-9" data-name="DR Sticker">
            <path class="cls-55" d="M23.872,143.5l-16.1-9.289a5.761,5.761,0,0,1-2.6-4.5V92.445c0-1.65,1.169-2.324,2.6-1.5l32.2,18.628a5.774,5.774,0,0,1,2.6,4.5v18.633"/>
            <path class="cls-56" d="M23.872,143.5l-16.1-9.289a5.761,5.761,0,0,1-2.6-4.5V92.445c0-1.65,1.169-2.324,2.6-1.5l32.2,18.628a5.774,5.774,0,0,1,2.6,4.5v18.633"/>
          </g>
          <g id="DR_Sticker-10" data-name="DR Sticker">
            <path class="cls-57" d="M42.57,132.712v13.576c0,4.4-3.118,6.2-6.929,4L23.872,143.5"/>
            <path class="cls-56" d="M42.57,132.712v13.576c0,4.4-3.118,6.2-6.929,4L23.872,143.5"/>
          </g>
        </g>
        <g>
          <path id="Center_Sticker-3" data-name="Center Sticker" class="cls-58" d="M51.919,205.566a15.365,15.365,0,0,0,6.929,12l23.537,13.58c3.811,2.2,6.929.4,6.929-4V199.99a15.365,15.365,0,0,0-6.929-12l-23.537-13.58c-3.811-2.2-6.929-.4-6.929,4Z"/>
          <g id="CR_Sticker-3" data-name="CR Sticker">
            <path class="cls-59" d="M117.361,251.325l-11.769-6.79a15.365,15.365,0,0,1-6.929-12V205.384c0-4.4,3.118-6.2,6.929-4l11.769,6.79"/>
            <path class="cls-60" d="M117.361,208.172l16.1,9.289a5.762,5.762,0,0,1,2.6,4.5v37.153c0,1.65-1.169,2.325-2.6,1.5l-16.1-9.289"/>
          </g>
          <g id="UC_sticker-2" data-name="UC sticker">
            <path id="Center-10" data-name="Center" class="cls-61" d="M89.314,159.625V141.049a5.76,5.76,0,0,0-2.6-4.5l-32.2-18.578c-1.429-.825-2.6-.149-2.6,1.5v18.576"/>
            <path id="Center-11" data-name="Center" class="cls-62" d="M51.919,138.049v13.576a15.365,15.365,0,0,0,6.929,12L82.385,177.2c3.811,2.2,6.929.4,6.929-4V159.625"/>
          </g>
        </g>
        <g id="UR_Sticker-2" data-name="UR Sticker">
          <path class="cls-63" d="M98.663,165.019V146.443c0-1.65,1.169-2.325,2.6-1.5l32.2,18.578a5.762,5.762,0,0,1,2.6,4.5v37.153c0,1.65-1.169,2.325-2.6,1.5l-16.1-9.289"/>
          <path class="cls-64" d="M117.361,197.384l-11.769-6.79a15.365,15.365,0,0,1-6.929-12V165.019"/>
        </g>
      </g>
    </g>
  </g>
</svg>
